PathFileType	4	(X/Y/Z)	Patient4_TMGait_0pt7_01_right_45.trc.trc
DataRate	CameraRate	NumFrames	NumMarkers	Units	OrigDataRate	OrigDataStartFrame	OrigNumFrames
83.333333333333	83.333333333333	5	33	mm	83.333333333333	18	       141
Frame#	Time	Sacral			L.Shoulder			Chest			R.Shoulder			Neck			R.ASIS			L.ASIS			R.Thigh.Superior			R.Thigh.Lateral			R.Thigh.Inferior			R.Patella			L.Thigh.Superior			L.Thigh.Lateral			L.Thigh.Inferior			L.Patella			L.Shank.Superior			L.Shank.Lateral			L.Shank.Inferior			R.Shank.Superior			R.Shank.Lateral			R.Shank.Inferior			R.Heel			R.Midfoot.Superior			R.Midfoot.Lateral			R.Toe			L.Heel			L.Midfoot.Lateral			L.Midfoot.Superior			L.Toe			L.Elbow			L.Wrist			R.Elbow			R.Wrist			
		X1	Y1	Z1	X2	Y2	Z2	X3	Y3	Z3	X4	Y4	Z4	X5	Y5	Z5	X6	Y6	Z6	X7	Y7	Z7	X8	Y8	Z8	X9	Y9	Z9	X10	Y10	Z10	X11	Y11	Z11	X12	Y12	Z12	X13	Y13	Z13	X14	Y14	Z14	X15	Y15	Z15	X16	Y16	Z16	X17	Y17	Z17	X18	Y18	Z18	X19	Y19	Z19	X20	Y20	Z20	X21	Y21	Z21	X22	Y22	Z22	X23	Y23	Z23	X24	Y24	Z24	X25	Y25	Z25	X26	Y26	Z26	X27	Y27	Z27	X28	Y28	Z28	X29	Y29	Z29	X30	Y30	Z30	X31	Y31	Z31	X32	Y32	Z32	X33	Y33	Z33	

18	51.794000000000	850.390437259120	1007.490365508796	427.532274684111	1081.638516406849	1415.524888919874	252.976509529362	1160.490252427961	1341.976560422659	426.492130234965	1067.568001828553	1434.835117125487	585.432488909990	1076.498699085980	1482.329046199094	402.653752887236	1059.114756931991	936.298210025377	572.220860266276	1079.032951794865	955.371994494494	296.038882767623	1139.031542704946	770.008757401860	555.292939954400	1095.025449494298	650.793124724718	630.189993973023	1190.022680627103	613.956304364502	556.440327665890	1226.272819092443	535.348403456520	576.773711726515	1078.909526147285	731.742600626021	324.989836116031	968.158130587478	636.790924185260	254.454560459662	1024.584059056075	543.710968365899	321.683383102634	1009.209581244213	478.399136038119	329.993851052140	978.913396000640	411.808811774013	320.564709431166	881.638548226999	304.725733917561	267.460077292769	920.621901350130	190.532647470958	341.773326924209	1216.838770549753	448.729618487085	590.726968018705	1171.386858420812	335.069523686857	659.452748037085	1248.455968750699	251.972684785168	614.365917375166	1172.475237359547	55.976417354362	595.944352896344	1329.074971769799	144.516013168443	633.731063307792	1255.674011720699	64.678245403098	668.963019047550	1454.767301939516	119.170543824832	662.557030860479	784.159178243432	39.628974928901	386.826972665083	856.209746029309	35.113581194536	304.743766605607	940.373033604972	95.751897741411	330.441807925265	1068.066559059645	43.076732102757	299.809547348918	1103.823730384698	1076.086991695208	120.818352587269	1344.660138085021	989.825219498810	153.331313802704	912.603548093831	1139.268403226354	725.012218657882	876.266266769338	886.826001896867	780.436174379375	
19	51.806000000000	852.604413554790	1005.347753926949	430.155102660281	1082.057083897322	1414.131856396410	255.410059938093	1161.604808416790	1340.629850826897	428.608604366059	1068.858494597723	1433.217753450366	587.832432648138	1077.403187863784	1480.677422260121	404.986471959820	1061.773446675838	933.993158578668	574.002185146283	1080.663206675983	954.035565762759	297.887575248008	1139.152234247704	764.815670665357	557.493034286571	1092.947246049153	646.315697585453	632.080604102388	1187.188965419901	608.363676698717	557.850991259762	1222.196844311611	531.202557344355	577.687814492468	1078.091151285635	729.886627626515	325.916332499051	965.466811748500	636.432823713260	255.489960067268	1020.824694113107	542.467390764886	322.174441307133	1004.755917142931	477.150669448769	330.231673468337	973.611238767835	411.066562323280	320.852696691615	874.967229001158	305.109210608942	267.825684802159	913.177946851759	190.276384860678	341.652209588983	1214.810328901643	445.054997254122	592.017147433800	1171.664824433615	330.116505671662	660.085417400853	1251.322418149833	249.058130516312	615.259657504340	1180.651184956166	51.040515164787	595.738268847403	1334.736434697722	143.424085682459	634.787801006256	1263.047144719561	61.859248049817	669.405374225679	1460.986622707357	121.385930200641	664.742402006864	775.740203620654	39.805270390165	386.712967089635	847.816175324451	35.170614331098	304.727647190770	932.078041836745	95.696622186218	330.314332279224	1059.691644690321	42.639217883002	299.743738395057	1104.538905475189	1074.958879228407	122.887633641727	1346.657010286729	994.666026687671	157.576059542811	909.205463779354	1140.868577565747	727.131942565641	872.301091786397	887.829135697458	780.098318465500	
20	51.818000000000	854.929055626846	1003.010615830326	433.188518700263	1082.291909153267	1412.580890874129	257.962084050940	1162.703147183494	1339.240182300538	430.819589316002	1070.161493853736	1431.503679060406	590.382633418061	1078.232764953315	1478.924315671047	407.457156273266	1064.706638464972	931.553319411817	575.903079131985	1082.296953061184	952.551696352338	299.900180511665	1139.955756177390	759.882869282671	559.572266149275	1091.594819377929	641.931319793522	633.715255019240	1185.154840190798	603.111790284187	559.105614449798	1218.888829984980	526.992771173586	578.470667035907	1077.555674952879	727.980912196708	326.947610346641	963.125200086899	635.994359733186	256.733220139841	1017.525048832851	541.135497533126	322.829059760487	1000.786096867085	475.752061764415	330.661565966399	968.709692730718	410.197588770637	321.293208232906	868.579165835194	305.514826374865	268.313614552450	905.864504018261	189.977790554367	341.592773763880	1212.909900953207	441.048992810548	593.033309607015	1171.094785004152	325.248977583184	660.318398244736	1252.467618163458	245.652919101210	615.714216664076	1185.148087554633	46.999685173855	595.001770755212	1337.537772907032	141.178040204651	635.330694742285	1266.736977945841	58.869203598687	669.363559929772	1463.973168686629	120.955332689737	666.430243665960	767.317734532329	40.019018747384	386.561643128309	839.440546404796	35.248315684408	304.692703828476	923.795862410808	95.655042866931	330.194027051572	1051.327892082487	42.199213943090	299.669391437436	1104.961221934269	1073.593646624646	125.128841646392	1348.007014427077	998.395810956705	161.886335467059	906.397781994715	1141.978530512323	729.150559981868	869.306658865892	888.231636747672	779.721774076420	
21	51.830000000000	857.330404243800	1000.556224539763	436.601581962397	1082.404968442937	1410.905260913861	260.639647324348	1163.810660337922	1337.824322785453	433.142125866738	1071.503388241700	1429.721124764698	593.091702040775	1079.027150730840	1477.111253539322	410.083154041951	1067.860755086172	929.041492321494	577.929106023926	1083.906899721593	950.946929525670	302.074866834272	1141.446081176681	755.337166517336	561.562603787634	1090.963925094850	637.738441604322	635.104631634184	1183.983497689705	598.338509254339	560.266676663509	1216.442577709740	522.847890448858	579.131141369211	1077.317625530423	726.052661335666	328.082772184219	961.158100032835	635.478432813122	258.194381113748	1014.727141000813	539.721274185608	323.646184302089	997.350155773297	474.201480510848	331.289250501804	964.248716084012	409.199740429829	321.896127368697	862.514123302920	305.955190240794	268.933561395500	898.697982510358	189.647285900498	341.599435804867	1211.289637666452	436.835740775014	593.800662097061	1169.925493365185	320.546483988166	660.267259247316	1252.166936597603	241.807129165681	615.808364313732	1186.209034324313	43.847325155028	593.958549299797	1337.856979659452	137.749046843359	635.388551368582	1267.107694313380	55.670288360160	668.971427498372	1464.184544447047	117.780227046094	667.488334239684	758.891017270249	40.308167381585	386.364818814968	831.084936790239	35.358458035338	304.633672786093	915.538766941310	95.635213019673	330.076139106789	1042.980791999430	41.755267501720	299.584825041355	1105.051323346387	1072.014040308361	127.549579391669	1348.737304917435	1000.980052880130	166.226446263223	904.285801246260	1142.528294662096	731.091037362965	867.308884362488	888.012749879682	779.363515961549	
22	51.842000000000	859.774325527746	998.080101765472	440.349940927764	1082.471084701206	1409.155746340201	263.446961123243	1164.960276515004	1336.408325451797	435.589310746689	1072.922283013756	1427.911219418111	595.964196979662	1079.839973545664	1475.294075727146	412.877977295054	1071.178740415336	926.542817504609	580.084939509035	1085.476474395097	949.269252754994	304.406213292213	1143.580012821737	751.285596957211	563.512955898365	1091.035703685227	633.854520632329	636.300776666210	1183.691266874242	594.169830544556	561.398780922319	1214.899935912138	518.903564758969	579.694904500135	1077.376080372473	724.141061465555	329.320765435147	959.572154242274	634.901778716905	259.878171135811	1012.455175132106	538.246795285487	324.618501673782	994.483466544399	472.511816392005	332.104395347492	960.252733586969	408.087748205175	322.660377752618	856.796632339825	306.457370485917	269.691848125752	891.693088364549	189.310352230279	341.668992455917	1210.078680083205	432.577049047528	594.376458004984	1168.431934826234	316.121911205790	660.075308473800	1250.756020593427	237.653140126941	615.648378053721	1184.266525764067	41.573218428374	592.830814019788	1336.163090894721	133.272200867461	635.027720610699	1264.682399150828	52.316592548814	668.376339464940	1462.164790570010	112.051066790236	667.847020960986	750.461819753967	40.728173214973	386.117595517294	822.750781387927	35.519041792461	304.547018149578	907.325344038594	95.647919752119	329.949527163297	1034.655345041323	41.309803943816	299.488461260674	1104.768377503065	1070.256206863440	130.164900562945	1348.862724729945	1002.395357923976	170.561600404490	902.974629366204	1142.474904039155	732.997798825821	866.367960990604	887.162758436197	779.057256444982	
